<?xml version="1.0" encoding="utf-8"?>
<!-- Generator: Adobe Illustrator 21.0.2, SVG Export Plug-In . SVG Version: 6.00 Build 0)  -->
<svg version="1.1" id="Layer_1" xmlns="http://www.w3.org/2000/svg" xmlns:xlink="http://www.w3.org/1999/xlink" x="0px" y="0px"
	 viewBox="0 0 395.5 164.8" style="enable-background:new 0 0 395.5 164.8;" xml:space="preserve">
<style type="text/css">
	.st0{fill:#000000;}
</style>
<g>
	<path class="st0" d="M23,35.9c-1.3-1.4-2.5-2.8-3.5-3.8l-0.1-0.1c-4.2-4.5-7.7-8.5-7.7-14.1c0-5.2,1.5-6.9,5.8-6.9
		c3.6,0,5.4,1.8,5.8,6c0,0,0.2,4.8,0.2,6.5c0,0.3,0.3,0.6,0.6,0.6h10c0.3,0,0.6-0.3,0.6-0.6c0-1.5-0.2-5.4-0.4-8.3
		C33.6,8.2,30,0,17.6,0C6.6,0,0,6.5,0,17.5c0,9.3,3.4,14.8,10.1,22.2c2.1,2.3,4.6,5,6,6.5c6,6.3,7.7,10,7.7,16.2c0,5.5-1.8,8-5.9,8
		c-3.8,0-5.6-1.5-6.2-5c-0.1-0.5-0.2-5.4-0.2-7.4c0-0.3-0.3-0.6-0.6-0.6H0.9c-0.3,0-0.6,0.3-0.6,0.6c0,0.1,0,8.6,0.3,10.1
		c0.7,8.3,6.9,12.8,17.3,12.8c11.2,0,17.6-6.9,17.6-19c0-10.5-3.3-16-9.9-23.2C24.7,37.8,23.9,36.8,23,35.9z"/>
	<path class="st0" d="M38.8,11.6h10.6v67.8c0,0.3,0.3,0.6,0.6,0.6h10.4c0.3,0,0.6-0.3,0.6-0.6V11.6h10.5c0.3,0,0.6-0.3,0.6-0.6V1.2
		c0-0.3-0.3-0.6-0.6-0.6H38.8c-0.3,0-0.6,0.3-0.6,0.6V11C38.1,11.4,38.4,11.6,38.8,11.6z"/>
	<path class="st0" d="M76.7,80h9.9c0.3,0,0.6-0.3,0.6-0.6V45.5h5.3l6.7,34c0.1,0.3,0.3,0.5,0.6,0.5h10.3c0.2,0,0.4-0.1,0.5-0.2
		c0.1-0.1,0.2-0.3,0.1-0.5l-7.6-36.8c2.1-0.9,4.3-3.4,5.3-6.1c1.1-2.9,1.6-7.1,1.6-13.4c0-5.8-0.6-10.5-1.9-14
		c-2-5.5-6.3-8.5-12.5-8.5H76.7c-0.3,0-0.6,0.3-0.6,0.6v78.2C76.1,79.8,76.4,80,76.7,80z M93.8,11.5c2.3,0,3.8,1.4,4.2,4
		c0.2,0.9,0.5,5.3,0.5,8.7c0,2.8-0.4,7-1,8.5c-0.3,0.8-1.1,2.1-3.2,2.3c-0.4,0.1-3.7,0.1-6.8,0.1V11.5H93.8z"/>
	<path class="st0" d="M315.2,36.4c1.1-2.9,1.6-7.1,1.6-13.4c0-5.8-0.6-10.5-1.9-14c-2-5.5-6.3-8.5-12.5-8.5h-18.8
		c-0.3,0-0.6,0.3-0.6,0.6v78.2c0,0.3,0.3,0.6,0.6,0.6h9.9c0.3,0,0.6-0.3,0.6-0.6V45.5h5.3l6.7,34c0.1,0.3,0.3,0.5,0.6,0.5h10.3
		c0.2,0,0.4-0.1,0.5-0.2c0.1-0.1,0.2-0.3,0.1-0.5l-7.6-36.8C312,41.6,314.2,39.1,315.2,36.4z M294.1,11.5h6.4c2.3,0,3.8,1.4,4.2,4
		c0.2,0.9,0.5,5.3,0.5,8.7c0,2.8-0.4,7-1,8.5c-0.3,0.8-1.1,2.1-3.2,2.3c-0.4,0.1-3.7,0.1-6.8,0.1V11.5z"/>
	<path class="st0" d="M353.4,36.4c1.1-2.9,1.6-7.1,1.6-13.4c0-5.8-0.6-10.5-1.9-14c-2-5.5-6.3-8.5-12.5-8.5h-18.8
		c-0.3,0-0.6,0.3-0.6,0.6v78.2c0,0.3,0.3,0.6,0.6,0.6h9.9c0.3,0,0.6-0.3,0.6-0.6V45.5h5.3l6.7,34c0.1,0.3,0.3,0.5,0.6,0.5h10.3
		c0.2,0,0.4-0.1,0.5-0.2c0.1-0.1,0.2-0.3,0.1-0.5l-7.6-36.8C350.2,41.6,352.4,39.1,353.4,36.4z M332.3,11.5h6.4c2.3,0,3.8,1.4,4.2,4
		c0.2,0.9,0.5,5.3,0.5,8.7c0,2.8-0.4,7-1,8.5c-0.3,0.8-1.1,2.1-3.2,2.3c-0.4,0.1-3.7,0.1-6.8,0.1V11.5z"/>
	<path class="st0" d="M141.7,0.6h-13.9c-0.3,0-0.6,0.2-0.6,0.5l-12.8,78.2c0,0.2,0,0.4,0.1,0.5c0.1,0.1,0.3,0.2,0.5,0.2h10.2
		c0.3,0,0.6-0.2,0.6-0.5l2.5-18.3h11.6l2.2,18.3c0,0.3,0.3,0.6,0.6,0.6h10.3c0.2,0,0.4-0.1,0.5-0.2c0.1-0.1,0.2-0.3,0.1-0.5
		L142.3,1.1C142.2,0.8,142,0.6,141.7,0.6z M138.4,51h-8.7c0.7-4.3,4.1-24.9,4.3-26.5c0.1-0.8,0.2-2.5,0.4-4.4
		c0.2,1.8,0.3,3.5,0.4,4.4C134.9,26,137.8,46.7,138.4,51z"/>
	<path class="st0" d="M205.5,0.6h-10.1c-0.3,0-0.6,0.2-0.6,0.6c-0.2,1.8-4.3,35.9-5.9,52.9c-1.7-17-6.2-51.1-6.4-52.9
		c0-0.3-0.3-0.5-0.6-0.5h-10.6c-0.3,0-0.6,0.2-0.6,0.5c-0.2,1.8-4.6,35.7-6.2,52.7c-1.6-17.1-5.7-51-5.9-52.7c0-0.3-0.3-0.6-0.6-0.6
		h-10.5c-0.2,0-0.4,0.1-0.5,0.2c-0.1,0.1-0.2,0.3-0.1,0.5l10.6,78.2c0,0.3,0.3,0.5,0.6,0.5h11.4c0.3,0,0.6-0.2,0.6-0.5
		c0.2-1.7,4.8-34,6.5-50c1.7,16,6.1,48.3,6.3,50c0,0.3,0.3,0.5,0.6,0.5h11.7c0.3,0,0.6-0.2,0.6-0.5l10.4-78.2c0-0.2,0-0.4-0.1-0.5
		C205.9,0.7,205.7,0.6,205.5,0.6z"/>
	<path class="st0" d="M238.2,39.1c2.1-1,3.8-2.8,4.7-5.1c1.5-4,1.7-9,1.7-13.7c0-4.3-0.5-10.4-2-13.4c-1.9-4-6.1-6.2-11.9-6.2h-20.2
		c-0.3,0-0.6,0.3-0.6,0.6v78.2c0,0.3,0.3,0.6,0.6,0.6h20.1c8.4,0,11.5-3.6,13.2-6.8c2-3.6,2.1-12.5,2.1-15.2c0-4.7-0.7-11.3-2-14
		C242.7,41.7,240.7,39.9,238.2,39.1z M231.7,32.4c-0.6,1.8-2,2.6-3.1,2.6H221V10.8h6.3c2.2,0,4,1.3,4.5,3.3c0.4,1.5,1,5.1,1,8.5
		C232.8,26.5,232.6,29.8,231.7,32.4z M221,45h8.1c1.9,0,3.1,0.9,3.7,2.6c0.6,2,1,6.6,1,9.6c0,2.9-0.2,8.8-0.7,10.1
		c-0.6,1.8-2,2.6-4.5,2.6H221V45z"/>
	<path class="st0" d="M278.9,69h-18.6V45.5h16.9c0.3,0,0.6-0.3,0.6-0.6v-9.7c0-0.3-0.3-0.6-0.6-0.6h-16.9v-23h18.4
		c0.3,0,0.6-0.3,0.6-0.6V1.2c0-0.3-0.3-0.6-0.6-0.6h-29.1c-0.3,0-0.6,0.3-0.6,0.6v78.2c0,0.3,0.3,0.6,0.6,0.6h29.3
		c0.3,0,0.6-0.3,0.6-0.6v-9.8C279.6,69.3,279.3,69,278.9,69z"/>
	<path class="st0" d="M395.4,0.8c-0.1-0.2-0.3-0.3-0.5-0.3h-10.3c-0.3,0-0.5,0.2-0.6,0.4c-0.3,1.2-7.1,24.4-9.3,33.7
		c-2-9.3-8.2-32.5-8.5-33.7c-0.1-0.3-0.3-0.5-0.6-0.5h-10.8c-0.2,0-0.4,0.1-0.5,0.2c-0.1,0.2-0.2,0.4-0.1,0.5L368.6,51v28.4
		c0,0.3,0.3,0.6,0.6,0.6h10.5c0.3,0,0.6-0.3,0.6-0.6V50.7l15.2-49.3C395.6,1.2,395.5,1,395.4,0.8z"/>
	<path class="st0" d="M23,119.9c-1.3-1.4-2.5-2.8-3.5-3.8l-0.1-0.1c-4.2-4.5-7.7-8.5-7.7-14.1c0-5.2,1.5-6.9,5.8-6.9
		c3.6,0,5.4,1.8,5.8,6c0,0,0.2,4.8,0.2,6.5c0,0.3,0.3,0.6,0.6,0.6h10c0.3,0,0.6-0.3,0.6-0.6c0-1.5-0.2-5.4-0.4-8.3
		C33.6,92.2,30,84,17.6,84C6.6,84,0,90.5,0,101.5c0,9.3,3.4,14.8,10.1,22.2c2.1,2.3,4.6,5,6,6.5c6,6.3,7.7,10,7.7,16.2
		c0,5.5-1.8,8-5.9,8c-3.8,0-5.6-1.5-6.2-5c-0.1-0.5-0.2-5.4-0.2-7.4c0-0.3-0.3-0.6-0.6-0.6H0.9c-0.3,0-0.6,0.3-0.6,0.6
		c0,0.1,0,8.6,0.3,10.1c0.7,8.3,6.9,12.8,17.3,12.8c11.2,0,17.6-6.9,17.6-19c0-10.5-3.3-16-9.9-23.2C24.7,121.8,23.9,120.8,23,119.9
		z"/>
	<path class="st0" d="M110.2,84.6H99.9c-0.3,0-0.6,0.3-0.6,0.6v62c0,4.5-1.9,6.7-5.7,6.7c-4.1,0-6-2.2-6-6.8V85.2
		c0-0.3-0.3-0.6-0.6-0.6H76.6c-0.3,0-0.6,0.3-0.6,0.6v63.3c0,10.1,6.6,16.2,17.6,16.2c10.8,0,17.2-6,17.2-16.1V85.2
		C110.8,84.9,110.5,84.6,110.2,84.6z"/>
	<path class="st0" d="M133.7,84.6h-18.8c-0.3,0-0.6,0.3-0.6,0.6v78.2c0,0.3,0.3,0.6,0.6,0.6h10.3c0.3,0,0.6-0.3,0.6-0.6v-30.1
		c0.7,0,1.8,0,3.1,0c1.9,0,3.5-0.1,4.7-0.2c5.7-0.6,9.4-2.3,11.7-5.4c2.4-3.2,3.5-8.8,3.5-18.8c0-9.4-0.9-14.6-3.4-18.8
		C143.1,86.4,139.2,84.6,133.7,84.6z M125.8,95.4h5.6c2,0,3.6,1,4.4,2.6c0.6,1.4,1.1,5.4,1.1,11.2c0,5.7-0.5,8.7-0.9,10.1
		c-0.6,2.1-2,3-5.1,3h-5.3V95.4z"/>
	<path class="st0" d="M54.9,84c-10.8,0-17.2,6-17.2,16.1l0,48.5c0,10.1,6.4,16.1,17.2,16.1c11,0,17.6-6.1,17.6-16.2l0-48.3
		C72.5,90.1,65.9,84,54.9,84z M55,154c-3.8,0-5.7-2.3-5.7-6.7l0-45.8c0-4.5,1.9-6.7,5.7-6.7c4.1,0,6,2.2,6,6.8l0,45.6
		C61.1,151.8,59.2,154,55,154z"/>
</g>
</svg>
